<svg width="40" height="40" viewBox="0 0 40 40" fill="none" xmlns="http://www.w3.org/2000/svg">
<path d="M34.1384 5.86157C30.4388 2.002 25.3194 -0.0777667 20 0.00222439C14.6806 -0.0777667 9.58116 2.002 5.88157 5.86157C2.002 9.56116 -0.0777667 14.6806 0.00222439 20C-0.0777667 25.3194 2.002 30.4188 5.86157 34.1184C9.56116 37.998 14.6806 40.0778 20 39.9978C25.3194 40.0778 30.4188 37.998 34.1184 34.1384C37.998 30.4388 40.0778 25.3194 39.9978 20C40.0778 14.6806 37.998 9.56116 34.1384 5.86157ZM29.9989 20V31.9987H22.9997V21.9998H17.0003V31.9987H10.0011V20H6.00156L20 6.00156L34.9983 20H29.9989Z" fill="#5A2FA9"/>
</svg>
