<?xml version="1.0" encoding="utf-8"?>
<!-- Generator: Adobe Illustrator 24.3.0, SVG Export Plug-In . SVG Version: 6.00 Build 0)  -->
<svg version="1.1" id="_x31_._Take_a_Guided_Tour_Active"
	 xmlns="http://www.w3.org/2000/svg" xmlns:xlink="http://www.w3.org/1999/xlink" x="0px" y="0px" viewBox="0 0 381.8 381.8"
	 style="enable-background:new 0 0 381.8 381.8;" xml:space="preserve">
<style type="text/css">
	.st0{fill:url(#SVGID_1_);}
	.st1{clip-path:url(#SVGID_3_);}
	.st2{fill:#05C0CC;}
	.st3{filter:url(#Adobe_OpacityMaskFilter);}
	.st4{opacity:0.5;mask:url(#SVGID_4_);}
	.st5{fill:#0076CE;}
	.st6{filter:url(#Adobe_OpacityMaskFilter_1_);}
	.st7{opacity:0.5;mask:url(#SVGID_5_);}
	.st8{fill:#1150AC;}
	.st9{filter:url(#Adobe_OpacityMaskFilter_2_);}
	.st10{opacity:0.5;mask:url(#SVGID_6_);}
	.st11{fill:#FFFFFF;}
</style>
<g>
	<g>
		<linearGradient id="SVGID_1_" gradientUnits="userSpaceOnUse" x1="0" y1="190.89" x2="381.78" y2="190.89">
			<stop  offset="0" style="stop-color:#0076CE"/>
			<stop  offset="1" style="stop-color:#05C0CC"/>
		</linearGradient>
		<path class="st0" d="M288.2,381.8H93.5C41.9,381.8,0,339.9,0,288.2V93.5C0,41.9,41.9,0,93.5,0h194.7c51.7,0,93.5,41.9,93.5,93.5
			v194.7C381.8,339.9,339.9,381.8,288.2,381.8z"/>
		<g>
			<defs>
				<path id="SVGID_2_" d="M288.2,381.8H93.5C41.9,381.8,0,339.9,0,288.2V93.5C0,41.9,41.9,0,93.5,0h194.7
					c51.7,0,93.5,41.9,93.5,93.5v194.7C381.8,339.9,339.9,381.8,288.2,381.8z"/>
			</defs>
			<clipPath id="SVGID_3_">
				<use xlink:href="#SVGID_2_"  style="overflow:visible;"/>
			</clipPath>
			<g class="st1">
				<g>
					<g>
						<path class="st2" d="M-104.1,439l532.6-5.8V284.8c-7.5,2.5-82.8,9.6-90.8,9.9c-39.5,1.6-77.3-27.1-88.2-65.1
							c-7.4-25.5-48.5-82.6-135.6-41.6c-25.3,11.9-55.6,14.8-81.1,3.2c-25.4-11.6-44.4-37.9-44.4-65.8c0-2.6,0.2-5.1,0.4-7.6
							c-6.2,11.9-93,25.2-93,38.8V439z"/>
					</g>
					<defs>
						<filter id="Adobe_OpacityMaskFilter" filterUnits="userSpaceOnUse" x="-104.1" y="117.9" width="532.6" height="321.1">
							
								<feColorMatrix  type="matrix" values="-1 0 0 0 1  0 -1 0 0 1  0 0 -1 0 1  0 0 0 1 0" color-interpolation-filters="sRGB" result="source"/>
						</filter>
					</defs>
					<mask maskUnits="userSpaceOnUse" x="-104.1" y="117.9" width="532.6" height="321.1" id="SVGID_4_">
						<g class="st3">
							
								<image style="overflow:visible;" width="537" height="327" xlink:href="38A594A5.jpg"  transform="matrix(1 0 0 1 -106.11 114.89)">
							</image>
						</g>
					</mask>
					<g class="st4">
						<path class="st5" d="M-104.1,439l532.6-5.8V284.8c-7.5,2.5-82.8,9.6-90.8,9.9c-39.5,1.6-77.3-27.1-88.2-65.1
							c-7.4-25.5-48.5-82.6-135.6-41.6c-25.3,11.9-55.6,14.8-81.1,3.2c-25.4-11.6-44.4-37.9-44.4-65.8c0-2.6,0.2-5.1,0.4-7.6
							c-6.2,11.9-93,25.2-93,38.8V439z"/>
					</g>
				</g>
				<g>
					<g>
						<path class="st5" d="M-16.1,198.9c32.6,51.6,91.5,85.1,152.4,88.8c50.2,3.1,105-11.5,148,14.5c16.8,10.2,29.6,25.6,44.3,38.6
							c28,24.8,63.6,40.9,100.7,45.6v54.7l-483.9-17.3L-16.1,198.9z"/>
					</g>
					<defs>
						<filter id="Adobe_OpacityMaskFilter_1_" filterUnits="userSpaceOnUse" x="-54.7" y="198.9" width="483.9" height="242.2">
							
								<feColorMatrix  type="matrix" values="-1 0 0 0 1  0 -1 0 0 1  0 0 -1 0 1  0 0 0 1 0" color-interpolation-filters="sRGB" result="source"/>
						</filter>
					</defs>
					<mask maskUnits="userSpaceOnUse" x="-54.7" y="198.9" width="483.9" height="242.2" id="SVGID_5_">
						<g class="st6">
							
								<image style="overflow:visible;" width="489" height="247" xlink:href="38A594A7.jpg"  transform="matrix(1 0 0 1 -57.11 196.89)">
							</image>
						</g>
					</mask>
					<g class="st7">
						<path class="st8" d="M-16.1,198.9c32.6,51.6,91.5,85.1,152.4,88.8c50.2,3.1,105-11.5,148,14.5c16.8,10.2,29.6,25.6,44.3,38.6
							c28,24.8,63.6,40.9,100.7,45.6v54.7l-483.9-17.3L-16.1,198.9z"/>
					</g>
				</g>
				<g>
					<g>
						<path class="st8" d="M233,383.5c-12.6-5-24.5-12.1-34.8-21c-5.8-4.9-11.3-10-17.3-14.6c-21-16-36.7-14.8-44.9-15
							c-6.8-0.2-13.6,0.6-20.2,2.2c-34.3,8.2-72.4,9.7-104.4-5.8c-4-1.9-7.9-4.3-66.6-34.6l-35.3,186.8l329.9,8.6L233,383.5z"/>
					</g>
					<defs>
						<filter id="Adobe_OpacityMaskFilter_2_" filterUnits="userSpaceOnUse" x="-90.7" y="294.7" width="329.9" height="195.4">
							
								<feColorMatrix  type="matrix" values="-1 0 0 0 1  0 -1 0 0 1  0 0 -1 0 1  0 0 0 1 0" color-interpolation-filters="sRGB" result="source"/>
						</filter>
					</defs>
					<mask maskUnits="userSpaceOnUse" x="-90.7" y="294.7" width="329.9" height="195.4" id="SVGID_6_">
						<g class="st9">
							
								<image style="overflow:visible;" width="335" height="201" xlink:href="38A594A2.jpg"  transform="matrix(1 0 0 1 -93.11 291.89)">
							</image>
						</g>
					</mask>
					<g class="st10">
						<path class="st8" d="M233,383.5c-12.6-5-24.5-12.1-34.8-21c-5.8-4.9-11.3-10-17.3-14.6c-21-16-36.7-14.8-44.9-15
							c-6.8-0.2-13.6,0.6-20.2,2.2c-34.3,8.2-72.4,9.7-104.4-5.8c-4-1.9-7.9-4.3-66.6-34.6l-35.3,186.8l329.9,8.6L233,383.5z"/>
					</g>
				</g>
			</g>
		</g>
		<path class="st11" d="M299.9,162.7c0-60.2-48.8-109-109-109c-60.2,0-109,48.8-109,109c0,28.5,11,54.5,28.9,73.9h0l80,91.4l80-91.4
			h0C288.9,217.2,299.9,191.2,299.9,162.7z M190.9,237.6c-42.7,0-77.2-34.6-77.2-77.2s34.6-77.2,77.2-77.2s77.2,34.6,77.2,77.2
			S233.5,237.6,190.9,237.6z"/>
	</g>
	<g>
		<g>
			<g>
				<path class="st11" d="M190.9,181.2c2.4,0,4.6-0.9,6.1-2.5c1.5-1.6,2.3-3.7,2.3-6.3v-50.9c0-2.6-0.8-4.7-2.3-6.3
					c-1.6-1.6-3.7-2.5-6.1-2.5s-4.6,0.9-6.1,2.5c-1.5,1.6-2.3,3.7-2.3,6.3v50.9c0,2.6,0.8,4.7,2.3,6.3
					C186.3,180.4,188.4,181.2,190.9,181.2z"/>
				<path class="st11" d="M197.4,192.2c-1.8-1.8-4-2.7-6.5-2.7c-2.5,0-4.8,0.9-6.5,2.7c-1.8,1.8-2.7,4-2.7,6.5
					c0,2.5,0.9,4.8,2.7,6.5c1.8,1.8,4,2.7,6.5,2.7c2.5,0,4.8-0.9,6.5-2.7c1.8-1.8,2.7-4,2.7-6.5C200.1,196.2,199.2,194,197.4,192.2z
					"/>
			</g>
		</g>
	</g>
</g>
</svg>
